# Blender v2.71 (sub 0) OBJ File: 'boid.blend'
# www.blender.org
mtllib boid.mtl
o Plane_Plane.001
v 0.000000 0.033030 0.070156
v -0.092154 0.000000 0.090938
v 0.092154 0.000000 0.090938
v 0.000000 0.000000 -0.122929
v 0.000000 -0.033030 0.070156
v 0.000000 0.000000 0.066124
v 0.000000 0.000000 -0.122929
v 0.000000 0.000000 -0.122929
v 0.000000 0.000000 -0.122929
v 0.092154 0.000000 0.090938
v 0.092154 0.000000 0.090938
v 0.092154 0.000000 0.090938
v 0.000000 0.033030 0.070156
v 0.000000 0.033030 0.070156
v 0.000000 0.033030 0.070156
v -0.092154 0.000000 0.090938
v -0.092154 0.000000 0.090938
v -0.092154 0.000000 0.090938
v 0.000000 0.000000 0.066124
v 0.000000 0.000000 0.066124
v 0.000000 0.000000 0.066124
v 0.000000 -0.033030 0.070156
v 0.000000 -0.033030 0.070156
v 0.000000 -0.033030 0.070156
vt 0.415359 0.744641
vt 0.000087 0.656009
vt 0.754685 0.000087
vt 0.754685 0.999913
vt 0.357127 0.872413
vn 0.364400 0.917900 -0.157000
vn -0.364400 0.917900 -0.157000
vn 0.258200 -0.117000 0.959000
vn -0.258200 -0.117000 0.959000
vn 0.364400 -0.917900 -0.157000
vn -0.364400 -0.917900 -0.157000
vn 0.258200 0.117000 0.959000
vn -0.258200 0.117000 0.959000
usemtl None
s off
f 1/1/1 3/2/1 4/3/1
f 2/4/2 13/1/2 7/3/2
f 16/4/3 19/5/3 14/1/3
f 10/2/4 15/1/4 6/5/4
f 5/1/5 8/3/5 11/2/5
f 17/4/6 9/3/6 22/1/6
f 18/4/7 23/1/7 20/5/7
f 12/2/8 21/5/8 24/1/8
