# Blender v2.71 (sub 0) OBJ File: 'Level1.blend'
# www.blender.org
mtllib Level_red.mtl
o Red_planar0148.002
v 9.000000 1.500000 0.000001
v 10.000000 2.000000 0.000001
v 11.000000 2.500000 0.000001
v 12.000000 3.000000 0.000001
v 9.000000 -23.400286 -0.000003
v 10.000000 -23.399607 -0.000003
v 11.000000 -23.398947 -0.000003
v 12.000000 -23.398268 -0.000003
v -6.000001 -1.500000 -0.000000
v -5.000001 -1.500000 -0.000000
v -4.000001 -1.500000 -0.000000
v -3.000001 -1.500000 -0.000000
v -6.000001 -26.400286 -0.000004
v -5.000001 -26.400286 -0.000004
v -4.000001 -26.400286 -0.000004
v -3.000001 -26.400286 -0.000004
v -3.000000 -1.500000 0.000001
v -2.000000 -1.000000 0.000001
v -1.000000 -0.500000 0.000001
v 0.000000 -0.000000 0.000001
v -3.000000 -26.400286 -0.000003
v -2.000000 -26.399607 -0.000003
v -1.000000 -26.398947 -0.000003
v 0.000000 -26.398268 -0.000003
v -3.000000 1.500002 -11.999999
v -2.000000 2.000002 -11.999999
v -1.000000 2.500002 -11.999999
v 0.000000 3.000002 -11.999998
v -3.000000 -23.400284 -12.000003
v -2.000000 -23.399605 -12.000003
v -1.000000 -23.398945 -12.000003
v 0.000000 -23.398266 -12.000003
v -9.000000 -3.000000 0.000001
v -8.000000 -2.500000 0.000001
v -7.000000 -2.000000 0.000001
v -6.000000 -1.500000 0.000001
v -9.000000 -27.900286 -0.000004
v -8.000000 -27.899607 -0.000004
v -7.000000 -27.898947 -0.000004
v -6.000000 -27.898268 -0.000004
v -3.000000 -4.500002 15.000000
v -2.000000 -4.000002 15.000000
v -1.000000 -3.500002 15.000000
v 0.000000 -3.000002 15.000000
v -3.000000 -29.400288 14.999996
v -2.000000 -29.399609 14.999996
v -1.000000 -29.398949 14.999996
v 0.000000 -29.398270 14.999996
v -6.000000 -6.000002 15.000000
v -5.000000 -5.500002 15.000000
v -4.000000 -5.000002 15.000000
v -3.000000 -4.500002 15.000000
v -6.000000 -30.900288 14.999996
v -5.000000 -30.899609 14.999996
v -4.000000 -30.898949 14.999996
v -3.000000 -30.898270 14.999996
v -9.000001 -6.000002 14.999999
v -8.000001 -6.000002 14.999999
v -7.000001 -6.000002 14.999999
v -6.000001 -6.000002 14.999999
v -9.000001 -30.900288 14.999995
v -8.000001 -30.900288 14.999995
v -7.000001 -30.900288 14.999995
v -6.000001 -30.900288 14.999995
v -12.000001 -6.000002 15.000000
v -11.000001 -6.000002 15.000000
v -10.000001 -6.000002 15.000000
v -9.000001 -6.000002 15.000000
v -12.000001 -30.900288 14.999996
v -11.000001 -30.900288 14.999996
v -10.000001 -30.900288 14.999996
v -9.000001 -30.900288 14.999996
v 3.000000 -3.000002 15.000000
v 4.000000 -2.500002 15.000001
v 5.000000 -2.000002 15.000001
v 6.000000 -1.500003 15.000001
v 3.000000 -27.900288 14.999996
v 4.000000 -27.899609 14.999996
v 5.000000 -27.898949 14.999996
v 6.000000 -27.898270 14.999996
v 5.999999 -1.500003 15.000000
v 6.999999 -1.500003 15.000000
v 7.999999 -1.500003 15.000000
v 8.999999 -1.500003 15.000000
v 5.999999 -26.400288 14.999995
v 6.999999 -26.400288 14.999995
v 7.999999 -26.400288 14.999995
v 8.999999 -26.400288 14.999995
v 9.000000 -1.500003 15.000001
v 10.000000 -1.000003 15.000001
v 11.000000 -0.500002 15.000001
v 12.000000 -0.000002 15.000001
v 9.000000 -26.400288 14.999996
v 10.000000 -26.399609 14.999996
v 11.000000 -26.398949 14.999996
v 12.000000 -26.398270 14.999996
v 11.999999 -0.000002 15.000000
v 12.999999 -0.000002 15.000000
v 13.999999 -0.000002 15.000000
v 14.999999 -0.000002 15.000000
v 11.999999 -24.900288 14.999996
v 12.999999 -24.900288 14.999996
v 13.999999 -24.900288 14.999996
v 14.999999 -24.900288 14.999996
v 15.000000 -0.000002 15.000001
v 16.000000 0.499998 15.000001
v 17.000000 0.999998 15.000001
v 18.000000 1.499997 15.000001
v 15.000000 -24.900288 14.999997
v 16.000000 -24.899609 14.999997
v 17.000000 -24.898949 14.999997
v 18.000000 -24.898270 14.999997
v -18.000000 -6.000004 26.999998
v -17.000000 -6.000004 26.999998
v -16.000000 -6.000004 26.999998
v -15.000001 -6.000004 26.999998
v -18.000000 -30.900290 26.999994
v -17.000000 -30.900290 26.999994
v -16.000000 -30.900290 26.999994
v -15.000001 -30.900290 26.999994
v -21.000000 -6.000004 26.999998
v -20.000000 -6.000004 26.999998
v -19.000000 -6.000004 26.999998
v -18.000000 -6.000004 26.999998
v -21.000000 -30.900290 26.999994
v -20.000000 -30.900290 26.999994
v -19.000000 -30.900290 26.999994
v -18.000000 -30.900290 26.999994
v -30.000000 -6.000004 26.999998
v -29.000000 -6.000004 26.999998
v -28.000000 -6.000004 26.999998
v -27.000000 -6.000004 26.999998
v -30.000000 -30.900290 26.999994
v -29.000000 -30.900290 26.999994
v -28.000000 -30.900290 26.999994
v -27.000000 -30.900290 26.999994
v -15.000001 -6.000004 26.999998
v -14.000001 -6.000004 26.999998
v -13.000001 -6.000004 26.999998
v -12.000001 -6.000004 26.999998
v -15.000001 -30.900290 26.999994
v -14.000001 -30.900290 26.999994
v -13.000001 -30.900290 26.999994
v -12.000001 -30.900290 26.999994
v -24.666643 -4.236192 33.333355
v -23.888859 -3.648254 33.111137
v -25.444429 -4.824129 33.555573
v -27.000000 -6.000006 34.000000
v -26.222214 -5.412069 33.777786
v -27.000000 -31.576164 33.999996
v -26.222214 -30.988226 33.777782
v -25.444429 -30.400290 33.555569
v -24.666643 -29.812351 33.333351
v -23.888859 -29.224413 33.111134
v -31.000002 -6.000007 34.000000
v -30.000002 -6.000007 34.000000
v -30.000002 -6.000007 34.000000
v -29.000002 -6.000007 34.000000
v -29.000002 -6.000007 34.000000
v -28.000002 -6.000007 34.000000
v -28.000002 -6.000007 34.000000
v -27.000002 -6.000007 34.000000
v -30.000002 -31.576164 33.999996
v -29.000002 -31.576164 33.999996
v -29.000002 -31.576164 33.999996
v -28.000002 -31.576164 33.999996
v -31.000002 -31.576164 33.999996
v -30.000002 -31.576164 33.999996
v -28.000002 -31.576164 33.999996
v -27.000002 -31.576164 33.999996
v -35.000000 -6.000007 34.000000
v -34.000000 -6.000007 34.000000
v -34.000000 -6.000007 34.000000
v -33.000000 -6.000007 34.000000
v -33.000000 -6.000007 34.000000
v -32.000000 -6.000007 34.000000
v -32.000000 -6.000007 34.000000
v -31.000002 -6.000007 34.000000
v -34.000000 -31.576164 33.999996
v -33.000000 -31.576164 33.999996
v -33.000000 -31.576164 33.999996
v -32.000000 -31.576164 33.999996
v -35.000000 -31.576164 33.999996
v -34.000000 -31.576164 33.999996
v -32.000000 -31.576164 33.999996
v -31.000002 -31.576164 33.999996
v -36.666641 -4.236194 45.333355
v -35.888859 -3.648256 45.111137
v -37.444427 -4.824131 45.555573
v -39.000000 -6.000008 46.000000
v -38.222214 -5.412071 45.777786
v -39.000000 -31.576166 45.999996
v -38.222214 -30.988228 45.777782
v -37.444427 -30.400291 45.555569
v -36.666641 -29.812353 45.333351
v -35.888859 -29.224415 45.111134
v -43.000000 -6.000009 46.000000
v -42.000000 -6.000009 46.000000
v -42.000000 -6.000009 46.000000
v -41.000000 -6.000009 46.000000
v -41.000000 -6.000009 46.000000
v -40.000000 -6.000009 46.000000
v -40.000000 -6.000009 46.000000
v -39.000000 -6.000009 46.000000
v -42.000000 -31.576166 45.999996
v -41.000000 -31.576166 45.999996
v -41.000000 -31.576166 45.999996
v -40.000000 -31.576166 45.999996
v -43.000000 -31.576166 45.999996
v -42.000000 -31.576166 45.999996
v -40.000000 -31.576166 45.999996
v -39.000000 -31.576166 45.999996
v -47.000000 -6.000009 46.000000
v -46.000000 -6.000009 46.000000
v -46.000000 -6.000009 46.000000
v -45.000000 -6.000009 46.000000
v -45.000000 -6.000009 46.000000
v -44.000000 -6.000009 46.000000
v -44.000000 -6.000009 46.000000
v -43.000000 -6.000009 46.000000
v -46.000000 -31.576166 45.999996
v -45.000000 -31.576166 45.999996
v -45.000000 -31.576166 45.999996
v -44.000000 -31.576166 45.999996
v -47.000000 -31.576166 45.999996
v -46.000000 -31.576166 45.999996
v -44.000000 -31.576166 45.999996
v -43.000000 -31.576166 45.999996
v -0.000001 -3.000002 14.999999
v 0.999999 -3.000002 14.999999
v 1.999999 -3.000002 14.999999
v 2.999999 -3.000002 14.999999
v -0.000001 -27.900288 14.999995
v 0.999999 -27.900288 14.999995
v 1.999999 -27.900288 14.999995
v 2.999999 -27.900288 14.999995
v -51.000000 -6.000009 46.000000
v -50.000000 -6.000009 46.000000
v -50.000000 -6.000009 46.000000
v -49.000000 -6.000009 46.000000
v -49.000000 -6.000009 46.000000
v -48.000000 -6.000009 46.000000
v -48.000000 -6.000009 46.000000
v -47.000000 -6.000009 46.000000
v -50.000000 -31.576166 45.999996
v -49.000000 -31.576166 45.999996
v -49.000000 -31.576166 45.999996
v -48.000000 -31.576166 45.999996
v -51.000000 -31.576166 45.999996
v -50.000000 -31.576166 45.999996
v -48.000000 -31.576166 45.999996
v -47.000000 -31.576166 45.999996
v -23.000000 -6.000004 26.999998
v -22.000000 -6.000004 26.999998
v -21.000000 -6.000004 26.999998
v -23.000000 -30.900290 26.999994
v -22.000000 -30.900290 26.999994
v -21.000000 -30.900290 26.999994
v -25.444429 -4.824129 33.555573
v -25.444429 -30.400290 33.555569
v -36.666641 -4.236194 45.333355
v -36.666641 -29.812353 45.333351
v -26.222214 -5.412069 33.777786
v -26.222214 -30.988226 33.777782
v -38.222214 -5.412071 45.777786
v -38.222214 -30.988228 45.777782
v -24.666643 -4.236192 33.333355
v -24.666643 -29.812351 33.333351
v -37.444427 -4.824131 45.555573
v -37.444427 -30.400291 45.555569
vt 0.666791 -0.018607
vt 0.500000 -0.023946
vt 0.500000 -0.094042
vt 0.833644 -0.013268
vt 0.666791 -0.094035
vt 1.000000 -0.007929
vt 0.833644 -0.094028
vt 0.000000 -0.015489
vt 0.000000 -0.073106
vt 0.167282 -0.073106
vt 0.167282 -0.015489
vt 0.333202 -0.073106
vt 0.333202 -0.015489
vt 0.500000 -0.073106
vt 0.501244 -0.072316
vt 0.666579 -0.070853
vt 0.666579 -0.007221
vt 0.334385 -0.073779
vt 0.501244 -0.008684
vt 0.167528 -0.075241
vt 0.334385 -0.010147
vt 0.000603 -0.076704
vt 0.167528 -0.011610
vt 0.168335 -0.216705
vt 0.168335 -0.253054
vt 0.335110 -0.253054
vt 0.335110 -0.216705
vt 0.501884 -0.253054
vt 0.000284 -0.216705
vt 0.000284 -0.253054
vt 0.501884 -0.216705
vt 0.668277 -0.253054
vt 1.000000 -0.094020
vt 0.500000 -0.015489
vt 0.000603 -0.013072
vt 0.668277 -0.216705
vn 0.000000 -0.000000 1.000000
vn 0.274700 -0.000000 0.961500
usemtl phongE2SG
s off
f 2/1/1 1/2/1 5/3/1
f 3/4/1 2/1/1 6/5/1
f 4/6/1 3/4/1 7/7/1
f 9/8/1 13/9/1 14/10/1
f 10/11/1 14/10/1 15/12/1
f 11/13/1 15/12/1 16/14/1
f 18/1/1 17/2/1 21/3/1
f 19/4/1 18/1/1 22/5/1
f 20/6/1 19/4/1 23/7/1
f 26/1/1 25/2/1 29/3/1
f 27/4/1 26/1/1 30/5/1
f 28/6/1 27/4/1 31/7/1
f 34/1/1 33/2/1 37/3/1
f 35/4/1 34/1/1 38/5/1
f 36/6/1 35/4/1 39/7/1
f 42/1/1 41/2/1 45/3/1
f 43/4/1 42/1/1 46/5/1
f 44/6/1 43/4/1 47/7/1
f 50/1/1 49/2/1 53/3/1
f 51/4/1 50/1/1 54/5/1
f 52/6/1 51/4/1 55/7/1
f 57/8/1 61/9/1 62/10/1
f 58/11/1 62/10/1 63/12/1
f 59/13/1 63/12/1 64/14/1
f 65/8/1 69/9/1 70/10/1
f 66/11/1 70/10/1 71/12/1
f 67/13/1 71/12/1 72/14/1
f 74/1/1 73/2/1 77/3/1
f 75/4/1 74/1/1 78/5/1
f 76/6/1 75/4/1 79/7/1
f 81/8/1 85/9/1 86/10/1
f 82/11/1 86/10/1 87/12/1
f 83/13/1 87/12/1 88/14/1
f 90/1/1 89/2/1 93/3/1
f 91/4/1 90/1/1 94/5/1
f 92/6/1 91/4/1 95/7/1
f 97/8/1 101/9/1 102/10/1
f 98/11/1 102/10/1 103/12/1
f 99/13/1 103/12/1 104/14/1
f 106/1/1 105/2/1 109/3/1
f 107/4/1 106/1/1 110/5/1
f 108/6/1 107/4/1 111/7/1
f 113/8/1 117/9/1 118/10/1
f 114/11/1 118/10/1 119/12/1
f 115/13/1 119/12/1 120/14/1
f 121/8/1 125/9/1 126/10/1
f 122/11/1 126/10/1 127/12/1
f 123/13/1 127/12/1 128/14/1
f 129/8/1 133/9/1 134/10/1
f 130/11/1 134/10/1 135/12/1
f 131/13/1 135/12/1 136/14/1
f 137/8/1 141/9/1 142/10/1
f 138/11/1 142/10/1 143/12/1
f 139/13/1 143/12/1 144/14/1
f 149/15/2 148/16/2 150/17/2
f 147/18/2 263/15/2 264/19/2
f 145/20/2 259/18/2 260/21/2
f 146/22/2 267/20/2 268/23/2
f 157/24/1 163/25/1 164/26/1
f 159/27/1 165/26/1 166/28/1
f 155/29/1 167/30/1 168/25/1
f 161/31/1 169/28/1 170/32/1
f 173/24/1 179/25/1 180/26/1
f 175/27/1 181/26/1 182/28/1
f 171/29/1 183/30/1 184/25/1
f 177/31/1 185/28/1 186/32/1
f 191/15/2 190/16/2 192/17/2
f 269/18/2 265/15/2 266/19/2
f 187/20/2 189/18/2 194/21/2
f 188/22/2 261/20/2 262/23/2
f 199/24/1 205/25/1 206/26/1
f 201/27/1 207/26/1 208/28/1
f 197/29/1 209/30/1 210/25/1
f 203/31/1 211/28/1 212/32/1
f 215/24/1 221/25/1 222/26/1
f 217/27/1 223/26/1 224/28/1
f 213/29/1 225/30/1 226/25/1
f 219/31/1 227/28/1 228/32/1
f 229/8/1 233/9/1 234/10/1
f 230/11/1 234/10/1 235/12/1
f 231/13/1 235/12/1 236/14/1
f 239/24/1 245/25/1 246/26/1
f 241/27/1 247/26/1 248/28/1
f 237/29/1 249/30/1 250/25/1
f 243/31/1 251/28/1 252/32/1
f 253/11/1 256/10/1 257/12/1
f 254/13/1 257/12/1 258/14/1
f 6/5/1 2/1/1 5/3/1
f 7/7/1 3/4/1 6/5/1
f 8/33/1 4/6/1 7/7/1
f 10/11/1 9/8/1 14/10/1
f 11/13/1 10/11/1 15/12/1
f 12/34/1 11/13/1 16/14/1
f 22/5/1 18/1/1 21/3/1
f 23/7/1 19/4/1 22/5/1
f 24/33/1 20/6/1 23/7/1
f 30/5/1 26/1/1 29/3/1
f 31/7/1 27/4/1 30/5/1
f 32/33/1 28/6/1 31/7/1
f 38/5/1 34/1/1 37/3/1
f 39/7/1 35/4/1 38/5/1
f 40/33/1 36/6/1 39/7/1
f 46/5/1 42/1/1 45/3/1
f 47/7/1 43/4/1 46/5/1
f 48/33/1 44/6/1 47/7/1
f 54/5/1 50/1/1 53/3/1
f 55/7/1 51/4/1 54/5/1
f 56/33/1 52/6/1 55/7/1
f 58/11/1 57/8/1 62/10/1
f 59/13/1 58/11/1 63/12/1
f 60/34/1 59/13/1 64/14/1
f 66/11/1 65/8/1 70/10/1
f 67/13/1 66/11/1 71/12/1
f 68/34/1 67/13/1 72/14/1
f 78/5/1 74/1/1 77/3/1
f 79/7/1 75/4/1 78/5/1
f 80/33/1 76/6/1 79/7/1
f 82/11/1 81/8/1 86/10/1
f 83/13/1 82/11/1 87/12/1
f 84/34/1 83/13/1 88/14/1
f 94/5/1 90/1/1 93/3/1
f 95/7/1 91/4/1 94/5/1
f 96/33/1 92/6/1 95/7/1
f 98/11/1 97/8/1 102/10/1
f 99/13/1 98/11/1 103/12/1
f 100/34/1 99/13/1 104/14/1
f 110/5/1 106/1/1 109/3/1
f 111/7/1 107/4/1 110/5/1
f 112/33/1 108/6/1 111/7/1
f 114/11/1 113/8/1 118/10/1
f 115/13/1 114/11/1 119/12/1
f 116/34/1 115/13/1 120/14/1
f 122/11/1 121/8/1 126/10/1
f 123/13/1 122/11/1 127/12/1
f 124/34/1 123/13/1 128/14/1
f 130/11/1 129/8/1 134/10/1
f 131/13/1 130/11/1 135/12/1
f 132/34/1 131/13/1 136/14/1
f 138/11/1 137/8/1 142/10/1
f 139/13/1 138/11/1 143/12/1
f 140/34/1 139/13/1 144/14/1
f 151/19/2 149/15/2 150/17/2
f 152/21/2 147/18/2 264/19/2
f 153/23/2 145/20/2 260/21/2
f 154/35/2 146/22/2 268/23/2
f 158/27/1 157/24/1 164/26/1
f 160/31/1 159/27/1 166/28/1
f 156/24/1 155/29/1 168/25/1
f 162/36/1 161/31/1 170/32/1
f 174/27/1 173/24/1 180/26/1
f 176/31/1 175/27/1 182/28/1
f 172/24/1 171/29/1 184/25/1
f 178/36/1 177/31/1 186/32/1
f 193/19/2 191/15/2 192/17/2
f 270/21/2 269/18/2 266/19/2
f 195/23/2 187/20/2 194/21/2
f 196/35/2 188/22/2 262/23/2
f 200/27/1 199/24/1 206/26/1
f 202/31/1 201/27/1 208/28/1
f 198/24/1 197/29/1 210/25/1
f 204/36/1 203/31/1 212/32/1
f 216/27/1 215/24/1 222/26/1
f 218/31/1 217/27/1 224/28/1
f 214/24/1 213/29/1 226/25/1
f 220/36/1 219/31/1 228/32/1
f 230/11/1 229/8/1 234/10/1
f 231/13/1 230/11/1 235/12/1
f 232/34/1 231/13/1 236/14/1
f 240/27/1 239/24/1 246/26/1
f 242/31/1 241/27/1 248/28/1
f 238/24/1 237/29/1 250/25/1
f 244/36/1 243/31/1 252/32/1
f 254/13/1 253/11/1 257/12/1
f 255/34/1 254/13/1 258/14/1
